<svg viewBox="0 0 221 27" fill="none" xmlns="http://www.w3.org/2000/svg">
<path d="M68.329 20.3472L70.7225 25.6294H74.1339L65.5504 7.2793H62.3591L53.8306 25.6294H57.0494L59.4429 20.3472H68.329ZM67.2561 17.9537H60.4883L63.8447 10.4431L67.2561 17.9537Z" fill="currentcolor"></path>
<path d="M88.7975 16.303C88.4674 13.1667 86.404 11.7086 82.3873 11.7086C78.3707 11.7086 76.0047 13.2768 76.0047 15.8904C76.0047 17.3209 76.8301 18.5314 78.1506 19.0542C79.0585 19.4118 79.7463 19.5769 82.3598 19.9895C85.1935 20.4297 85.1935 20.4297 85.7162 20.6498C86.2389 20.8699 86.5416 21.3376 86.5416 21.8878C86.5416 23.1533 85.111 23.8686 82.5249 23.8686C79.8838 23.8686 78.3707 22.9608 78.1781 21.2276H75.3995C75.9222 24.5289 78.0956 25.987 82.4974 25.987C86.8992 25.987 89.2927 24.4464 89.2927 21.6127C89.2927 20.4022 88.825 19.4393 87.9721 18.8066C87.1743 18.2288 86.6791 18.1188 82.9926 17.541C80.7367 17.1834 80.2415 17.1008 79.6912 16.8808C79.086 16.6607 78.6733 16.1655 78.6733 15.6427C78.6733 14.5423 80.1039 13.827 82.2498 13.827C84.6983 13.827 85.8813 14.5973 86.1014 16.303H88.7975Z" fill="currentcolor"></path>
<path d="M105.105 16.303C104.775 13.1667 102.712 11.7086 98.6953 11.7086C94.6787 11.7086 92.3127 13.2768 92.3127 15.8904C92.3127 17.3209 93.138 18.5314 94.4586 19.0542C95.3665 19.4118 96.0543 19.5769 98.6678 19.9895C101.501 20.4297 101.501 20.4297 102.024 20.6498C102.547 20.8699 102.85 21.3376 102.85 21.8878C102.85 23.1533 101.419 23.8686 98.8329 23.8686C96.1918 23.8686 94.6787 22.9608 94.4861 21.2276H91.7075C92.2302 24.5289 94.4036 25.987 98.8054 25.987C103.207 25.987 105.601 24.4464 105.601 21.6127C105.601 20.4022 105.133 19.4393 104.28 18.8066C103.482 18.2288 102.987 18.1188 99.3006 17.541C97.0447 17.1834 96.5495 17.1008 95.9992 16.8808C95.394 16.6607 94.9813 16.1655 94.9813 15.6427C94.9813 14.5423 96.4119 13.827 98.5578 13.827C101.006 13.827 102.189 14.5973 102.409 16.303H105.105Z" fill="currentcolor"></path>
<path d="M123.153 19.6319C123.153 17.9537 122.96 16.9083 122.492 15.7528C121.447 13.2217 118.833 11.7086 115.587 11.7086C111.103 11.7086 107.994 14.6523 107.994 18.9166C107.994 23.1533 111.02 25.987 115.532 25.987C119.136 25.987 121.557 24.4739 122.905 21.3926H120.016C119.328 23.0433 117.898 23.8686 115.779 23.8686C112.836 23.8686 110.855 22.2455 110.58 19.6319H123.153ZM110.662 17.541C111.295 15.1475 113.056 13.7995 115.559 13.7995C118.035 13.7995 119.824 15.1475 120.429 17.541H110.662Z" fill="currentcolor"></path>
<path d="M129.683 8.29722H127.015V12.0663H125.254V14.2672H127.015V22.1629C127.015 23.8962 127.152 24.5014 127.703 25.0241C128.28 25.6019 129.326 25.9045 130.674 25.9045C131.334 25.9045 131.829 25.8495 132.847 25.7119V23.4835C132.214 23.5935 131.939 23.621 131.389 23.621C130.014 23.621 129.683 23.3184 129.683 22.0804V14.2672H132.847V12.0663H129.683V8.29722Z" fill="currentcolor"></path>
<path d="M156.434 25.6294L162.624 7.2793H159.736L154.894 22.4105L149.722 7.2793H146.53L141.386 22.4105L136.681 7.2793H133.49L139.652 25.6294H142.926L148.071 10.3881L153.326 25.6294H156.434Z" fill="currentcolor"></path>
<path d="M166.638 16.5506C166.83 14.5423 167.986 13.7995 170.902 13.7995C173.378 13.7995 174.561 14.4598 174.561 15.9179C174.561 16.6056 174.231 17.0183 173.488 17.2659C172.8 17.486 172.387 17.541 169.966 17.7886C167.133 18.0913 166.528 18.2288 165.537 18.669C164.272 19.2467 163.474 20.5123 163.474 21.9704C163.474 24.4739 165.482 26.0145 168.756 26.0145C171.205 26.0145 172.91 25.3543 174.561 23.7861C175.084 25.2992 175.854 25.8219 177.532 25.8219C178.11 25.8219 178.44 25.7669 178.935 25.6019V23.7861C178.715 23.8136 178.495 23.8411 178.33 23.8411C177.422 23.8686 177.092 23.4009 177.092 22.0804V16.0554C177.092 14.4047 176.707 13.4694 175.771 12.8366C174.643 12.0663 173.02 11.7086 170.792 11.7086C167.986 11.7086 166.005 12.4239 164.904 13.827C164.354 14.5148 164.107 15.2301 163.969 16.5506H166.638ZM174.561 19.962C174.561 21.2551 174.368 21.7778 173.598 22.5206C172.635 23.4285 171.287 23.8962 169.499 23.8962C167.325 23.8962 166.225 23.1809 166.225 21.8053C166.225 20.5673 166.968 20.0996 169.361 19.852C171.507 19.6319 173.075 19.3293 174.561 18.8616V19.962Z" fill="currentcolor"></path>
<path d="M184.518 8.29722H181.849V12.0663H180.089V14.2672H181.849V22.1629C181.849 23.8962 181.987 24.5014 182.537 25.0241C183.115 25.6019 184.16 25.9045 185.508 25.9045C186.169 25.9045 186.664 25.8495 187.682 25.7119V23.4835C187.049 23.5935 186.774 23.621 186.224 23.621C184.848 23.621 184.518 23.3184 184.518 22.0804V14.2672H187.682V12.0663H184.518V8.29722Z" fill="currentcolor"></path>
<path d="M201.2 20.7048C200.568 22.8232 199.192 23.8686 196.991 23.8686C193.965 23.8686 192.122 21.9704 192.122 18.8066C192.122 15.6703 193.91 13.7995 196.964 13.7995C199.082 13.7995 200.513 14.7349 201.118 16.5231H203.704C203.016 13.4969 200.513 11.7086 196.909 11.7086C192.314 11.7086 189.453 14.4598 189.453 18.9166C189.453 23.3184 192.259 25.987 196.909 25.987C200.595 25.987 203.099 24.0887 203.814 20.7048H201.2Z" fill="currentcolor"></path>
<path d="M207.121 25.6294H209.789V17.7336C209.789 15.6703 211.935 13.9646 214.549 13.9646C215.539 13.9646 216.364 14.2122 216.97 14.7074C217.685 15.2851 217.905 15.8353 217.905 17.1834V25.6294H220.574V16.9908C220.574 14.9825 220.216 13.937 219.281 13.1117C218.263 12.2038 216.777 11.7086 215.071 11.7086C212.87 11.7086 211.522 12.2864 209.789 13.9921V7.2793H207.121V25.6294Z" fill="currentcolor"></path>
<path fill-rule="evenodd" clip-rule="evenodd" d="M4.79967 17.1611L0 25.5902H6.33631C7.36152 25.5903 8.36837 25.3183 9.2541 24.8021C10.1398 24.2858 10.8727 23.5437 11.3779 22.6516L14.4874 17.1611H4.79967Z" fill="#2DDBB9"></path>
<path fill-rule="evenodd" clip-rule="evenodd" d="M11.3329 11.3764L17.7359 22.6572C18.2415 23.5478 18.9743 24.2884 19.8594 24.8036C20.7445 25.3188 21.7504 25.5902 22.7745 25.59H29.1152L14.5496 0L11.3358 5.64837C10.8389 6.52101 10.5774 7.50781 10.5769 8.512C10.5764 9.51619 10.8369 10.5033 11.3329 11.3764V11.3764Z" fill="#2DDBB9"></path>
<path fill-rule="evenodd" clip-rule="evenodd" d="M29.1152 0L25.9 5.64837C25.404 6.52091 25.1433 7.50732 25.1433 8.51094C25.1433 9.51456 25.404 10.501 25.9 11.3735L32.3044 22.6543C32.8099 23.5447 33.5424 24.2852 34.4272 24.8004C35.3121 25.3156 36.3176 25.587 37.3415 25.5871H43.6822L29.1152 0Z" fill="#2DDBB9"></path>
<path fill-rule="evenodd" clip-rule="evenodd" d="M43.6792 0L40.4654 5.64837C39.9687 6.52143 39.7075 7.50864 39.7075 8.51311C39.7075 9.51758 39.9687 10.5048 40.4654 11.3778L43.6792 17.0262L48.5223 8.51311L43.6792 0Z" fill="#2DDBB9"></path>
</svg>